HIERARCHY
ROOT SpineBase
{
  OFFSET 0.000000 0.000000 0.000000
  CHANNELS 6 Xposition Yposition Zposition Zrotation Xrotation Yrotation
  JOINT SpineMid
  {
    OFFSET 0.000000 26.927986 0.000000
    CHANNELS 3 Zrotation Xrotation Yrotation
    JOINT SpineShoulder
    {
      OFFSET -0.076558 20.000328 -0.561932
      CHANNELS 3 Zrotation Xrotation Yrotation
      JOINT Neck
      {
        OFFSET -0.086537 6.639829 -0.467146
        CHANNELS 3 Zrotation Xrotation Yrotation
        JOINT Head
        {
          OFFSET 0.766782 12.553952 -0.637402
          CHANNELS 3 Zrotation Xrotation Yrotation
          End Site
          {
            OFFSET 0 0 0
          }
        }
      }
      JOINT ShoulderLeft
      {
        OFFSET -11.534417 -0.940190 9.570413
        CHANNELS 3 Zrotation Xrotation Yrotation
        JOINT ElbowLeft
        {
          OFFSET -6.415778 -18.501823 3.134962
          CHANNELS 3 Zrotation Xrotation Yrotation
          JOINT WristLeft
          {
            OFFSET -13.397241 -12.924456 -8.314415
            CHANNELS 3 Zrotation Xrotation Yrotation
            JOINT HandLeft
            {
              OFFSET -3.666760 -4.157254 -1.111402
              CHANNELS 3 Zrotation Xrotation Yrotation
              JOINT HandTipLeft
              {
                OFFSET -4.385021 -4.163663 -1.303582
                CHANNELS 3 Zrotation Xrotation Yrotation
                End Site
                {
                  OFFSET 0 0 0
                }
              }
              JOINT ThumbLeft
              {
                OFFSET -2.954295 2.847996 -1.117032
                CHANNELS 3 Zrotation Xrotation Yrotation
                End Site
                {
                  OFFSET 0 0 0
                }
              }
            }
          }
        }
      }
      JOINT ShoulderRight
      {
        OFFSET 6.596635 -4.400341 -11.429040
        CHANNELS 3 Zrotation Xrotation Yrotation
        JOINT ElbowRight
        {
          OFFSET -7.731442 -19.588907 -1.618610
          CHANNELS 3 Zrotation Xrotation Yrotation
          JOINT WristRight
          {
            OFFSET 16.094220 -10.678214 -0.666193
            CHANNELS 3 Zrotation Xrotation Yrotation
            JOINT HandRight
            {
              OFFSET 3.557433 -2.349552 0.317256
              CHANNELS 3 Zrotation Xrotation Yrotation
              JOINT HandTipRight
              {
                OFFSET 3.303597 0.446192 2.180603
                CHANNELS 3 Zrotation Xrotation Yrotation
                End Site
                {
                  OFFSET 0 0 0
                }
              }
              JOINT ThumbRight
              {
                OFFSET 3.757112 2.673390 0.429466
                CHANNELS 3 Zrotation Xrotation Yrotation
                End Site
                {
                  OFFSET 0 0 0
                }
              }
            }
          }
        }
      }
    }
  }
  JOINT HipLeft
  {
    OFFSET -5.488655 0.811567 1.432532
    CHANNELS 3 Zrotation Xrotation Yrotation
    JOINT KneeLeft
    {
      OFFSET -34.563286 8.346233 3.074540
      CHANNELS 3 Zrotation Xrotation Yrotation
      JOINT AnkleLeft
      {
        OFFSET -7.273529 -32.909628 3.982488
        CHANNELS 3 Zrotation Xrotation Yrotation
        JOINT FootLeft
        {
          OFFSET 0.741939 -5.344062 -9.530059
          CHANNELS 3 Zrotation Xrotation Yrotation
          End Site
          {
            OFFSET 0 0 0
          }
        }
      }
    }
  }
  JOINT HipRight
  {
    OFFSET 4.551957 0.611089 -7.637810
    CHANNELS 3 Zrotation Xrotation Yrotation
    JOINT KneeRight
    {
      OFFSET -31.631221 1.333692 -11.758005
      CHANNELS 3 Zrotation Xrotation Yrotation
      JOINT AnkleRight
      {
        OFFSET -4.572722 -32.502666 6.256001
        CHANNELS 3 Zrotation Xrotation Yrotation
        JOINT FootRight
        {
          OFFSET -6.789575 -2.610669 -7.695893
          CHANNELS 3 Zrotation Xrotation Yrotation
          End Site
          {
            OFFSET 0 0 0
          }
        }
      }
    }
  }
}
MOTION
Frames: 12
Frame Time: 0.033333
55.463930 41.473678 369.033965 -0.000000 0.000000 42.093566 -0.000000 0.000000 -42.093566 -0.000000 0.000000 0.000000 -0.000000 0.000000 0.000000 0.000000 0.000000 0.000000 -0.000000 0.000000 0.000000 -0.000000 0.000000 0.000000 -0.000000 0.000000 0.000000 -0.000000 0.000000 0.000000 0.000000 0.000000 0.000000 0.000000 0.000000 0.000000 -0.000000 0.000000 0.000000 -0.000000 0.000000 0.000000 -0.000000 0.000000 0.000000 -0.000000 0.000000 0.000000 0.000000 0.000000 0.000000 0.000000 0.000000 0.000000 -0.000000 0.000000 -42.093566 -0.000000 0.000000 0.000000 -0.000000 0.000000 0.000000 0.000000 0.000000 0.000000 -0.000000 0.000000 -42.093566 -0.000000 0.000000 0.000000 -0.000000 0.000000 0.000000 0.000000 0.000000 0.000000
55.361028 41.465394 368.953865 -0.161886 0.028446 42.237535 0.100733 -0.129881 -42.237380 -0.000000 0.000000 0.000000 -0.000000 0.000000 0.000000 0.000000 0.000000 0.000000 -0.311215 -0.778394 0.214628 0.660451 1.407907 -1.101397 -1.112349 0.822683 -0.210548 0.007299 0.034437 -0.250908 0.000000 0.000000 0.000000 0.000000 0.000000 0.000000 2.791735 1.496592 -0.865281 -0.644207 -4.309356 -3.344463 3.321650 1.562835 2.691662 0.590812 -2.514143 2.094121 0.000000 0.000000 0.000000 0.000000 0.000000 0.000000 0.100733 -0.129881 -42.237380 -0.000000 0.000000 0.000000 0.210963 -0.802550 -0.492174 0.000000 0.000000 0.000000 0.100733 -0.129881 -42.237380 0.201890 0.829507 -0.079436 5.014513 -6.683990 0.419067 0.000000 0.000000 0.000000
55.271369 41.462884 368.878425 -0.291207 0.036073 42.412601 0.190671 -0.223041 -42.412138 -0.000000 0.000000 0.000000 -0.000000 0.000000 0.000000 0.000000 0.000000 0.000000 -0.606452 -1.602766 0.442713 1.323776 2.838252 -2.223882 -2.013629 1.678377 -0.521449 -0.030754 -0.093128 -0.333395 0.000000 0.000000 0.000000 0.000000 0.000000 0.000000 5.439070 2.971290 -1.793554 -2.756406 -7.585910 -5.026529 6.243924 2.001204 3.060872 -0.647828 -2.152312 3.885013 0.000000 0.000000 0.000000 0.000000 0.000000 0.000000 1.099876 -0.920214 -42.415608 -1.141440 -0.098626 0.011559 0.479145 -1.395127 -1.064802 0.000000 0.000000 0.000000 -0.209658 0.581917 -42.037090 1.209537 1.171142 -0.516104 10.352882 -13.254479 1.523005 0.000000 0.000000 0.000000
55.194954 41.466147 368.807644 -0.387940 0.022837 42.618812 0.270015 -0.279485 -42.618076 -0.000000 0.000000 0.000000 0.987968 -0.015476 0.051269 0.000000 0.000000 0.000000 -0.885013 -2.473107 0.684312 1.990661 4.289527 -3.367908 -2.704716 2.607076 -0.962304 -0.132396 -0.375965 -0.264187 0.000000 0.000000 0.000000 0.000000 0.000000 0.000000 7.915089 4.420452 -2.772920 -6.108314 -9.941500 -5.509996 7.745544 1.047407 1.510456 -0.813255 -0.372874 5.704653 0.000000 0.000000 0.000000 0.000000 0.000000 0.000000 1.543410 -1.266734 -42.629712 -1.605399 -0.136237 0.026910 0.803577 -1.779990 -1.713375 0.000000 0.000000 0.000000 -0.265046 0.802517 -42.122280 1.623592 1.571993 -0.685792 15.650920 -19.133420 3.191448 0.000000 0.000000 0.000000
55.131783 41.475183 368.741523 -0.452042 -0.011319 42.856075 0.339077 -0.299161 -42.855234 -0.000000 0.000000 0.000000 1.288570 -0.099206 0.072649 0.000000 0.000000 0.000000 -1.146150 -3.389279 0.939514 2.661870 5.760200 -4.534002 -3.175584 3.651885 -1.569247 -0.314143 -0.817228 -0.050861 0.000000 0.000000 0.000000 0.000000 0.000000 0.000000 10.195057 5.844451 -3.791305 -10.754735 -11.451126 -5.003251 6.547734 -1.321043 -2.031786 1.549422 2.750074 7.598348 0.000000 0.000000 0.000000 0.000000 0.000000 0.000000 1.915287 -1.536840 -42.881742 -1.218361 -0.649427 0.255780 0.399894 -1.479358 -2.641331 0.000000 0.000000 0.000000 -0.285416 0.973708 -42.284876 1.903813 1.850911 -0.794957 20.418563 -23.834379 5.097085 0.000000 0.000000 0.000000
55.081855 41.489993 368.680061 -0.483440 -0.066468 43.124151 0.398289 -0.281956 -43.123451 -0.000000 0.000000 0.000000 1.571794 -0.221965 0.096483 0.000000 0.000000 0.000000 -1.389062 -4.351004 1.208451 3.338246 7.248702 -5.722763 -3.402809 4.861043 -2.388704 -0.593090 -1.429695 0.306306 0.000000 0.000000 0.000000 0.000000 0.000000 0.000000 12.256111 7.247663 -4.837020 -17.003816 -12.133960 -3.495391 1.030259 -4.355557 -8.209627 7.303495 7.745005 9.172939 0.000000 0.000000 0.000000 0.000000 0.000000 0.000000 2.215526 -1.729844 -43.172896 -1.401505 -0.789501 0.329385 0.698796 -1.348616 -3.475639 0.000000 0.000000 0.000000 -0.270007 1.093974 -42.525620 2.046899 2.008512 -0.842785 24.141388 -27.097455 6.791933 0.000000 0.000000 0.000000
55.012929 41.526467 368.574546 -0.541321 -0.110460 43.610182 0.468135 -0.293396 -43.609505 -0.312338 -0.855565 -0.035440 2.220813 0.435007 0.132036 0.000000 0.000000 0.000000 -1.891507 -6.110900 1.940962 5.715152 11.018192 -9.068073 -3.700915 9.592818 -5.942811 -2.213926 -3.880356 1.748077 0.000000 0.000000 0.000000 0.000000 0.000000 0.000000 15.250552 9.924544 -6.496746 -30.081670 -11.882820 0.284353 -16.592777 -1.472941 -14.001562 17.224702 18.296550 1.194404 0.000000 0.000000 0.000000 0.000000 0.000000 0.000000 2.600820 -2.005077 -43.611291 -1.654735 -0.961322 0.341179 1.733529 -1.805498 -5.819069 0.000000 0.000000 0.000000 -0.178494 1.065961 -43.046137 2.104971 2.273425 -0.832550 24.888738 -28.028063 5.839069 0.000000 0.000000 0.000000
54.996017 41.561736 368.522243 -0.512155 -0.203789 43.835512 -0.186078 -0.686377 -43.848903 0.029508 -0.263014 -0.016722 2.113481 0.484433 0.133005 0.000000 0.000000 0.000000 -2.280384 -7.181767 2.310570 7.111227 13.086483 -11.366195 -4.652113 14.248130 -9.414892 -1.023638 -8.279380 5.081728 0.000000 0.000000 0.000000 0.000000 0.000000 0.000000 17.178651 11.901976 -8.019910 -43.658236 -11.737136 4.603633 -24.287035 2.600725 -25.840220 1.249664 38.203276 7.076558 0.000000 0.000000 0.000000 0.000000 0.000000 0.000000 2.876263 -2.122466 -43.838804 -2.020021 -0.898720 0.319217 3.876677 -2.620401 -9.773363 0.000000 0.000000 0.000000 -0.117712 1.122465 -43.356143 1.852511 2.037447 -0.749427 23.050405 -26.135940 5.197145 0.000000 0.000000 0.000000
55.013634 41.583073 368.512341 -0.396867 -0.361853 44.180101 -0.180568 -0.758162 -44.190016 0.078813 -0.261040 -0.007782 1.923945 0.445525 0.135285 0.000000 0.000000 0.000000 -2.402819 -7.435661 2.475643 6.008030 13.725591 -10.767859 -2.574181 9.925551 -6.519783 -5.028638 -3.800679 1.398065 0.000000 0.000000 0.000000 0.000000 0.000000 0.000000 17.967273 13.693485 -9.264801 -55.232035 -11.833011 9.247174 -21.693895 6.382793 -34.092421 -44.678923 45.588749 32.941263 0.000000 0.000000 0.000000 0.000000 0.000000 0.000000 2.920846 -2.013476 -44.314360 -1.764982 -1.358394 0.597730 2.473690 1.675739 -7.079160 0.000000 0.000000 0.000000 -0.013158 1.164159 -43.799623 1.555422 1.586691 -0.602251 23.356861 -25.833577 6.819291 0.000000 0.000000 0.000000
55.023771 41.581960 368.528081 -0.278233 -0.528975 44.342458 -0.165518 -0.784667 -44.348852 0.103097 -0.249370 -0.001206 2.176953 0.310361 0.160334 0.000000 0.000000 0.000000 -2.093665 -6.567749 2.355138 5.350495 12.385067 -9.767892 -2.957830 9.789739 -6.345926 -4.892634 -4.226948 2.009506 0.000000 0.000000 0.000000 0.000000 0.000000 0.000000 17.964987 14.591923 -9.800713 -61.902231 -11.650185 13.503047 -17.711187 7.933803 -45.319951 -63.840441 38.234931 46.460710 0.000000 0.000000 0.000000 0.000000 0.000000 0.000000 2.799884 -1.735554 -44.595302 -1.628481 -1.574130 0.758912 2.397464 2.096270 -6.912369 0.000000 0.000000 0.000000 0.568712 0.183832 -44.344655 0.229255 1.317325 -0.144208 23.338323 -25.088796 9.326416 0.000000 0.000000 0.000000
55.068093 41.588799 368.554253 -0.079232 -0.731540 44.507884 -0.111155 -0.839766 -44.506229 0.134833 -0.230360 0.011166 2.353312 0.157175 0.182789 0.000000 0.000000 0.000000 -2.412155 -6.580735 2.408427 5.671953 12.206599 -9.751710 -1.270431 10.755020 -7.690891 -5.501970 -3.068165 0.717305 0.000000 0.000000 0.000000 0.000000 0.000000 0.000000 15.951656 14.687909 -9.355344 -62.439660 -10.771665 17.697119 -13.501732 6.327937 -53.901759 -70.936485 34.890915 48.683186 0.000000 0.000000 0.000000 0.000000 0.000000 0.000000 2.544894 -1.306732 -44.932172 -1.447559 -1.486797 0.894085 2.467787 2.873755 -6.656222 0.000000 0.000000 0.000000 0.569333 0.466149 -44.510706 -0.000000 0.000000 0.000000 22.865515 -23.462605 11.652149 0.000000 0.000000 0.000000
55.292932 41.768114 368.706836 0.283849 -0.956115 44.471260 -0.051344 -0.916271 -44.453970 0.151103 -0.204907 0.030026 2.484852 0.029064 0.200404 0.000000 0.000000 0.000000 -3.099174 -6.487122 2.387037 6.984746 11.712954 -10.192229 -0.196690 10.356139 -7.513028 -3.776186 0.285864 -2.668906 0.000000 0.000000 0.000000 0.000000 0.000000 0.000000 12.633540 13.758643 -8.053828 -58.500066 -8.775294 21.429559 -12.079584 3.306890 -63.934361 -78.055526 24.330029 51.887966 0.000000 0.000000 0.000000 0.000000 0.000000 0.000000 2.796322 -1.320519 -45.296398 -2.025168 -1.490170 1.296142 2.568065 2.000727 -6.976232 0.000000 0.000000 0.000000 0.467275 0.881131 -44.472484 -0.000000 0.000000 0.000000 22.948832 -23.337432 16.120043 0.000000 0.000000 0.000000
